<mxfile host="Electron" agent="Mozilla/5.0 (Macintosh; Intel Mac OS X 10_15_7) AppleWebKit/537.36 (KHTML, like Gecko) draw.io/24.7.17 Chrome/128.0.6613.36 Electron/32.0.1 Safari/537.36" version="24.7.17">
  <diagram name="Page-1" id="tBIAlemMxgHySIvlNtww">
    <mxGraphModel dx="1062" dy="633" grid="1" gridSize="10" guides="1" tooltips="1" connect="1" arrows="1" fold="1" page="1" pageScale="1" pageWidth="1920" pageHeight="1200" math="0" shadow="0">
      <root>
        <mxCell id="0" />
        <mxCell id="1" parent="0" />
        <mxCell id="q5pX1_xFONWicA8Pv0eM-26" value="" style="rounded=0;whiteSpace=wrap;html=1;fillColor=none;" parent="1" vertex="1">
          <mxGeometry x="80" y="540" width="350" height="200" as="geometry" />
        </mxCell>
        <mxCell id="YcG1K_yQFC_txdDWkhpD-149" value="" style="rounded=0;whiteSpace=wrap;html=1;fillColor=none;" parent="1" vertex="1">
          <mxGeometry x="80" y="160" width="810" height="290" as="geometry" />
        </mxCell>
        <mxCell id="YcG1K_yQFC_txdDWkhpD-1" value="&lt;p style=&quot;line-height: 0%;&quot;&gt;&lt;span style=&quot;font-size: 16px;&quot;&gt;&lt;b&gt;Multiplier&lt;/b&gt;&lt;/span&gt;&lt;/p&gt;&lt;p style=&quot;line-height: 0%;&quot;&gt;&lt;font style=&quot;font-size: 12px;&quot;&gt;4bitx4bit&lt;/font&gt;&lt;/p&gt;&lt;p&gt;&lt;/p&gt;" style="rounded=1;whiteSpace=wrap;html=1;" parent="1" vertex="1">
          <mxGeometry x="160" y="200" width="670" height="80" as="geometry" />
        </mxCell>
        <mxCell id="YcG1K_yQFC_txdDWkhpD-2" value="&lt;p style=&quot;line-height: 0%;&quot;&gt;&lt;b style=&quot;&quot;&gt;&lt;font style=&quot;font-size: 12px;&quot;&gt;Scan&lt;/font&gt;&lt;/b&gt;&lt;/p&gt;&lt;p style=&quot;line-height: 0%;&quot;&gt;&lt;b style=&quot;&quot;&gt;&lt;font style=&quot;font-size: 12px;&quot;&gt;DFF&lt;/font&gt;&lt;/b&gt;&lt;/p&gt;&lt;p&gt;&lt;/p&gt;" style="rounded=1;whiteSpace=wrap;html=1;" parent="1" vertex="1">
          <mxGeometry x="190" y="310" width="50" height="50" as="geometry" />
        </mxCell>
        <mxCell id="YcG1K_yQFC_txdDWkhpD-3" value="" style="endArrow=classic;html=1;rounded=0;edgeStyle=orthogonalEdgeStyle;entryX=0;entryY=0.4;entryDx=0;entryDy=0;entryPerimeter=0;exitX=0.033;exitY=1;exitDx=0;exitDy=0;exitPerimeter=0;endSize=3;" parent="1" source="YcG1K_yQFC_txdDWkhpD-1" target="YcG1K_yQFC_txdDWkhpD-2" edge="1">
          <mxGeometry width="50" height="50" relative="1" as="geometry">
            <mxPoint x="130" y="370" as="sourcePoint" />
            <mxPoint x="180" y="320" as="targetPoint" />
            <Array as="points">
              <mxPoint x="180" y="330" />
            </Array>
          </mxGeometry>
        </mxCell>
        <mxCell id="YcG1K_yQFC_txdDWkhpD-4" value="" style="endArrow=classic;html=1;rounded=0;edgeStyle=orthogonalEdgeStyle;entryX=0;entryY=0.2;entryDx=0;entryDy=0;entryPerimeter=0;endSize=3;" parent="1" edge="1">
          <mxGeometry width="50" height="50" relative="1" as="geometry">
            <mxPoint x="160" y="340" as="sourcePoint" />
            <mxPoint x="190" y="340" as="targetPoint" />
            <Array as="points">
              <mxPoint x="180" y="340" />
            </Array>
          </mxGeometry>
        </mxCell>
        <mxCell id="YcG1K_yQFC_txdDWkhpD-5" value="&lt;p style=&quot;line-height: 0%;&quot;&gt;&lt;b style=&quot;&quot;&gt;&lt;font style=&quot;font-size: 12px;&quot;&gt;Scan&lt;/font&gt;&lt;/b&gt;&lt;/p&gt;&lt;p style=&quot;line-height: 0%;&quot;&gt;&lt;b style=&quot;&quot;&gt;&lt;font style=&quot;font-size: 12px;&quot;&gt;DFF&lt;/font&gt;&lt;/b&gt;&lt;/p&gt;&lt;p&gt;&lt;/p&gt;" style="rounded=1;whiteSpace=wrap;html=1;" parent="1" vertex="1">
          <mxGeometry x="270" y="310" width="50" height="50" as="geometry" />
        </mxCell>
        <mxCell id="YcG1K_yQFC_txdDWkhpD-7" value="" style="endArrow=classic;html=1;rounded=0;edgeStyle=orthogonalEdgeStyle;entryX=0;entryY=0.2;entryDx=0;entryDy=0;entryPerimeter=0;endSize=3;" parent="1" edge="1">
          <mxGeometry width="50" height="50" relative="1" as="geometry">
            <mxPoint x="240" y="340" as="sourcePoint" />
            <mxPoint x="270" y="340" as="targetPoint" />
            <Array as="points">
              <mxPoint x="260" y="340" />
            </Array>
          </mxGeometry>
        </mxCell>
        <mxCell id="YcG1K_yQFC_txdDWkhpD-8" value="" style="endArrow=classic;html=1;rounded=0;edgeStyle=orthogonalEdgeStyle;entryX=0;entryY=0.4;entryDx=0;entryDy=0;entryPerimeter=0;exitX=0.033;exitY=1;exitDx=0;exitDy=0;exitPerimeter=0;endSize=3;" parent="1" edge="1">
          <mxGeometry width="50" height="50" relative="1" as="geometry">
            <mxPoint x="260" y="280" as="sourcePoint" />
            <mxPoint x="270" y="330" as="targetPoint" />
            <Array as="points">
              <mxPoint x="260" y="330" />
            </Array>
          </mxGeometry>
        </mxCell>
        <mxCell id="YcG1K_yQFC_txdDWkhpD-9" value="" style="endArrow=classic;html=1;rounded=0;entryX=0.017;entryY=1;entryDx=0;entryDy=0;entryPerimeter=0;" parent="1" edge="1">
          <mxGeometry width="50" height="50" relative="1" as="geometry">
            <mxPoint x="250" y="340" as="sourcePoint" />
            <mxPoint x="250.19999999999993" y="280" as="targetPoint" />
          </mxGeometry>
        </mxCell>
        <mxCell id="YcG1K_yQFC_txdDWkhpD-10" value="" style="endArrow=classic;html=1;rounded=0;entryX=0.017;entryY=1;entryDx=0;entryDy=0;entryPerimeter=0;" parent="1" edge="1">
          <mxGeometry width="50" height="50" relative="1" as="geometry">
            <mxPoint x="200" y="380" as="sourcePoint" />
            <mxPoint x="200.19999999999993" y="360" as="targetPoint" />
          </mxGeometry>
        </mxCell>
        <mxCell id="YcG1K_yQFC_txdDWkhpD-11" value="" style="endArrow=classic;html=1;rounded=0;entryX=0.017;entryY=1;entryDx=0;entryDy=0;entryPerimeter=0;" parent="1" edge="1">
          <mxGeometry width="50" height="50" relative="1" as="geometry">
            <mxPoint x="220" y="390" as="sourcePoint" />
            <mxPoint x="220.19999999999993" y="360" as="targetPoint" />
          </mxGeometry>
        </mxCell>
        <mxCell id="YcG1K_yQFC_txdDWkhpD-12" value="" style="endArrow=classic;html=1;rounded=0;entryX=0.017;entryY=1;entryDx=0;entryDy=0;entryPerimeter=0;" parent="1" edge="1">
          <mxGeometry width="50" height="50" relative="1" as="geometry">
            <mxPoint x="230" y="400" as="sourcePoint" />
            <mxPoint x="230.19999999999993" y="360" as="targetPoint" />
          </mxGeometry>
        </mxCell>
        <mxCell id="YcG1K_yQFC_txdDWkhpD-13" value="" style="endArrow=classic;html=1;rounded=0;entryX=0.017;entryY=1;entryDx=0;entryDy=0;entryPerimeter=0;" parent="1" edge="1">
          <mxGeometry width="50" height="50" relative="1" as="geometry">
            <mxPoint x="279.84000000000003" y="380" as="sourcePoint" />
            <mxPoint x="280.03999999999996" y="360" as="targetPoint" />
          </mxGeometry>
        </mxCell>
        <mxCell id="YcG1K_yQFC_txdDWkhpD-14" value="" style="endArrow=classic;html=1;rounded=0;entryX=0.017;entryY=1;entryDx=0;entryDy=0;entryPerimeter=0;" parent="1" edge="1">
          <mxGeometry width="50" height="50" relative="1" as="geometry">
            <mxPoint x="299.84000000000003" y="390" as="sourcePoint" />
            <mxPoint x="300.03999999999996" y="360" as="targetPoint" />
          </mxGeometry>
        </mxCell>
        <mxCell id="YcG1K_yQFC_txdDWkhpD-15" value="" style="endArrow=classic;html=1;rounded=0;entryX=0.017;entryY=1;entryDx=0;entryDy=0;entryPerimeter=0;" parent="1" edge="1">
          <mxGeometry width="50" height="50" relative="1" as="geometry">
            <mxPoint x="309.84000000000003" y="400" as="sourcePoint" />
            <mxPoint x="310.03999999999996" y="360" as="targetPoint" />
          </mxGeometry>
        </mxCell>
        <mxCell id="YcG1K_yQFC_txdDWkhpD-16" value="" style="shape=ellipse;fillColor=#000000;strokeColor=none;html=1;sketch=0;fontFamily=Helvetica;fontSize=11;fontColor=default;labelBackgroundColor=default;" parent="1" vertex="1">
          <mxGeometry x="247" y="337" width="6" height="6" as="geometry" />
        </mxCell>
        <mxCell id="YcG1K_yQFC_txdDWkhpD-17" value="" style="shape=ellipse;fillColor=#000000;strokeColor=none;html=1;sketch=0;fontFamily=Helvetica;fontSize=11;fontColor=default;labelBackgroundColor=default;" parent="1" vertex="1">
          <mxGeometry x="197" y="377" width="6" height="6" as="geometry" />
        </mxCell>
        <mxCell id="YcG1K_yQFC_txdDWkhpD-18" value="" style="shape=ellipse;fillColor=#000000;strokeColor=none;html=1;sketch=0;fontFamily=Helvetica;fontSize=11;fontColor=default;labelBackgroundColor=default;" parent="1" vertex="1">
          <mxGeometry x="217" y="387" width="6" height="6" as="geometry" />
        </mxCell>
        <mxCell id="YcG1K_yQFC_txdDWkhpD-19" value="" style="shape=ellipse;fillColor=#000000;strokeColor=none;html=1;sketch=0;fontFamily=Helvetica;fontSize=11;fontColor=default;labelBackgroundColor=default;" parent="1" vertex="1">
          <mxGeometry x="227" y="397" width="6" height="6" as="geometry" />
        </mxCell>
        <mxCell id="YcG1K_yQFC_txdDWkhpD-20" value="" style="shape=ellipse;fillColor=#000000;strokeColor=none;html=1;sketch=0;fontFamily=Helvetica;fontSize=11;fontColor=default;labelBackgroundColor=default;" parent="1" vertex="1">
          <mxGeometry x="277" y="377" width="6" height="6" as="geometry" />
        </mxCell>
        <mxCell id="YcG1K_yQFC_txdDWkhpD-21" value="" style="shape=ellipse;fillColor=#000000;strokeColor=none;html=1;sketch=0;fontFamily=Helvetica;fontSize=11;fontColor=default;labelBackgroundColor=default;" parent="1" vertex="1">
          <mxGeometry x="297" y="387" width="6" height="6" as="geometry" />
        </mxCell>
        <mxCell id="YcG1K_yQFC_txdDWkhpD-22" value="" style="shape=ellipse;fillColor=#000000;strokeColor=none;html=1;sketch=0;fontFamily=Helvetica;fontSize=11;fontColor=default;labelBackgroundColor=default;" parent="1" vertex="1">
          <mxGeometry x="307" y="397" width="6" height="6" as="geometry" />
        </mxCell>
        <mxCell id="YcG1K_yQFC_txdDWkhpD-23" value="&lt;font style=&quot;font-size: 8px;&quot;&gt;scan_in&lt;/font&gt;" style="text;html=1;align=center;verticalAlign=middle;resizable=0;points=[];autosize=1;strokeColor=none;fillColor=none;" parent="1" vertex="1">
          <mxGeometry x="230" y="329" width="50" height="30" as="geometry" />
        </mxCell>
        <mxCell id="YcG1K_yQFC_txdDWkhpD-24" value="&lt;font style=&quot;font-size: 8px;&quot;&gt;data&lt;/font&gt;" style="text;html=1;align=center;verticalAlign=middle;resizable=0;points=[];autosize=1;strokeColor=none;fillColor=none;" parent="1" vertex="1">
          <mxGeometry x="251" y="307" width="40" height="30" as="geometry" />
        </mxCell>
        <mxCell id="YcG1K_yQFC_txdDWkhpD-25" value="p[7]" style="text;html=1;align=center;verticalAlign=middle;resizable=0;points=[];autosize=1;strokeColor=none;fillColor=none;" parent="1" vertex="1">
          <mxGeometry x="159" y="256" width="40" height="30" as="geometry" />
        </mxCell>
        <mxCell id="YcG1K_yQFC_txdDWkhpD-26" value="a[3]&lt;span style=&quot;color: rgba(0, 0, 0, 0); font-family: monospace; font-size: 0px; text-align: start;&quot;&gt;%3CmxGraphModel%3E%3Croot%3E%3CmxCell%20id%3D%220%22%2F%3E%3CmxCell%20id%3D%221%22%20parent%3D%220%22%2F%3E%3CmxCell%20id%3D%222%22%20value%3D%22p%5B7%5D%22%20style%3D%22text%3Bhtml%3D1%3Balign%3Dcenter%3BverticalAlign%3Dmiddle%3Bresizable%3D0%3Bpoints%3D%5B%5D%3Bautosize%3D1%3BstrokeColor%3Dnone%3BfillColor%3Dnone%3B%22%20vertex%3D%221%22%20parent%3D%221%22%3E%3CmxGeometry%20x%3D%22159%22%20y%3D%22256%22%20width%3D%2240%22%20height%3D%2230%22%20as%3D%22geometry%22%2F%3E%3C%2FmxCell%3E%3C%2Froot%3E%3C%2FmxGraphModel%3E&lt;/span&gt;" style="text;html=1;align=center;verticalAlign=middle;resizable=0;points=[];autosize=1;strokeColor=none;fillColor=none;" parent="1" vertex="1">
          <mxGeometry x="222" y="256" width="40" height="30" as="geometry" />
        </mxCell>
        <mxCell id="YcG1K_yQFC_txdDWkhpD-27" value="p[6]" style="text;html=1;align=center;verticalAlign=middle;resizable=0;points=[];autosize=1;strokeColor=none;fillColor=none;" parent="1" vertex="1">
          <mxGeometry x="246" y="256" width="40" height="30" as="geometry" />
        </mxCell>
        <mxCell id="YcG1K_yQFC_txdDWkhpD-28" value="&lt;p style=&quot;line-height: 0%;&quot;&gt;&lt;b style=&quot;&quot;&gt;&lt;font style=&quot;font-size: 12px;&quot;&gt;Scan&lt;/font&gt;&lt;/b&gt;&lt;/p&gt;&lt;p style=&quot;line-height: 0%;&quot;&gt;&lt;b style=&quot;&quot;&gt;&lt;font style=&quot;font-size: 12px;&quot;&gt;DFF&lt;/font&gt;&lt;/b&gt;&lt;/p&gt;&lt;p&gt;&lt;/p&gt;" style="rounded=1;whiteSpace=wrap;html=1;" parent="1" vertex="1">
          <mxGeometry x="350" y="310" width="50" height="50" as="geometry" />
        </mxCell>
        <mxCell id="YcG1K_yQFC_txdDWkhpD-29" value="" style="endArrow=classic;html=1;rounded=0;edgeStyle=orthogonalEdgeStyle;entryX=0;entryY=0.2;entryDx=0;entryDy=0;entryPerimeter=0;endSize=3;" parent="1" edge="1">
          <mxGeometry width="50" height="50" relative="1" as="geometry">
            <mxPoint x="320" y="340" as="sourcePoint" />
            <mxPoint x="350" y="340" as="targetPoint" />
            <Array as="points">
              <mxPoint x="340" y="340" />
            </Array>
          </mxGeometry>
        </mxCell>
        <mxCell id="YcG1K_yQFC_txdDWkhpD-30" value="" style="endArrow=classic;html=1;rounded=0;edgeStyle=orthogonalEdgeStyle;entryX=0;entryY=0.4;entryDx=0;entryDy=0;entryPerimeter=0;exitX=0.033;exitY=1;exitDx=0;exitDy=0;exitPerimeter=0;endSize=3;" parent="1" edge="1">
          <mxGeometry width="50" height="50" relative="1" as="geometry">
            <mxPoint x="340" y="280" as="sourcePoint" />
            <mxPoint x="350" y="330" as="targetPoint" />
            <Array as="points">
              <mxPoint x="340" y="330" />
            </Array>
          </mxGeometry>
        </mxCell>
        <mxCell id="YcG1K_yQFC_txdDWkhpD-31" value="" style="endArrow=classic;html=1;rounded=0;entryX=0.017;entryY=1;entryDx=0;entryDy=0;entryPerimeter=0;" parent="1" edge="1">
          <mxGeometry width="50" height="50" relative="1" as="geometry">
            <mxPoint x="330" y="340" as="sourcePoint" />
            <mxPoint x="330.19999999999993" y="280" as="targetPoint" />
          </mxGeometry>
        </mxCell>
        <mxCell id="YcG1K_yQFC_txdDWkhpD-32" value="" style="endArrow=classic;html=1;rounded=0;entryX=0.017;entryY=1;entryDx=0;entryDy=0;entryPerimeter=0;" parent="1" edge="1">
          <mxGeometry width="50" height="50" relative="1" as="geometry">
            <mxPoint x="359.84000000000003" y="380" as="sourcePoint" />
            <mxPoint x="360.03999999999996" y="360" as="targetPoint" />
          </mxGeometry>
        </mxCell>
        <mxCell id="YcG1K_yQFC_txdDWkhpD-33" value="" style="endArrow=classic;html=1;rounded=0;entryX=0.017;entryY=1;entryDx=0;entryDy=0;entryPerimeter=0;" parent="1" edge="1">
          <mxGeometry width="50" height="50" relative="1" as="geometry">
            <mxPoint x="379.84000000000003" y="390" as="sourcePoint" />
            <mxPoint x="380.03999999999996" y="360" as="targetPoint" />
          </mxGeometry>
        </mxCell>
        <mxCell id="YcG1K_yQFC_txdDWkhpD-34" value="" style="endArrow=classic;html=1;rounded=0;entryX=0.017;entryY=1;entryDx=0;entryDy=0;entryPerimeter=0;" parent="1" edge="1">
          <mxGeometry width="50" height="50" relative="1" as="geometry">
            <mxPoint x="389.84000000000003" y="400" as="sourcePoint" />
            <mxPoint x="390.03999999999996" y="360" as="targetPoint" />
          </mxGeometry>
        </mxCell>
        <mxCell id="YcG1K_yQFC_txdDWkhpD-35" value="" style="shape=ellipse;fillColor=#000000;strokeColor=none;html=1;sketch=0;fontFamily=Helvetica;fontSize=11;fontColor=default;labelBackgroundColor=default;" parent="1" vertex="1">
          <mxGeometry x="327" y="337" width="6" height="6" as="geometry" />
        </mxCell>
        <mxCell id="YcG1K_yQFC_txdDWkhpD-36" value="" style="shape=ellipse;fillColor=#000000;strokeColor=none;html=1;sketch=0;fontFamily=Helvetica;fontSize=11;fontColor=default;labelBackgroundColor=default;" parent="1" vertex="1">
          <mxGeometry x="357" y="377" width="6" height="6" as="geometry" />
        </mxCell>
        <mxCell id="YcG1K_yQFC_txdDWkhpD-37" value="" style="shape=ellipse;fillColor=#000000;strokeColor=none;html=1;sketch=0;fontFamily=Helvetica;fontSize=11;fontColor=default;labelBackgroundColor=default;" parent="1" vertex="1">
          <mxGeometry x="377" y="387" width="6" height="6" as="geometry" />
        </mxCell>
        <mxCell id="YcG1K_yQFC_txdDWkhpD-38" value="" style="shape=ellipse;fillColor=#000000;strokeColor=none;html=1;sketch=0;fontFamily=Helvetica;fontSize=11;fontColor=default;labelBackgroundColor=default;" parent="1" vertex="1">
          <mxGeometry x="387" y="397" width="6" height="6" as="geometry" />
        </mxCell>
        <mxCell id="YcG1K_yQFC_txdDWkhpD-39" value="&lt;font style=&quot;font-size: 8px;&quot;&gt;scan_in&lt;/font&gt;" style="text;html=1;align=center;verticalAlign=middle;resizable=0;points=[];autosize=1;strokeColor=none;fillColor=none;" parent="1" vertex="1">
          <mxGeometry x="310" y="329" width="50" height="30" as="geometry" />
        </mxCell>
        <mxCell id="YcG1K_yQFC_txdDWkhpD-40" value="&lt;font style=&quot;font-size: 8px;&quot;&gt;data&lt;/font&gt;" style="text;html=1;align=center;verticalAlign=middle;resizable=0;points=[];autosize=1;strokeColor=none;fillColor=none;" parent="1" vertex="1">
          <mxGeometry x="331" y="307" width="40" height="30" as="geometry" />
        </mxCell>
        <mxCell id="YcG1K_yQFC_txdDWkhpD-41" value="a[3]&lt;span style=&quot;color: rgba(0, 0, 0, 0); font-family: monospace; font-size: 0px; text-align: start;&quot;&gt;%3CmxGraphModel%3E%3Croot%3E%3CmxCell%20id%3D%220%22%2F%3E%3CmxCell%20id%3D%221%22%20parent%3D%220%22%2F%3E%3CmxCell%20id%3D%222%22%20value%3D%22p%5B7%5D%22%20style%3D%22text%3Bhtml%3D1%3Balign%3Dcenter%3BverticalAlign%3Dmiddle%3Bresizable%3D0%3Bpoints%3D%5B%5D%3Bautosize%3D1%3BstrokeColor%3Dnone%3BfillColor%3Dnone%3B%22%20vertex%3D%221%22%20parent%3D%221%22%3E%3CmxGeometry%20x%3D%22159%22%20y%3D%22256%22%20width%3D%2240%22%20height%3D%2230%22%20as%3D%22geometry%22%2F%3E%3C%2FmxCell%3E%3C%2Froot%3E%3C%2FmxGraphModel%3E&lt;/span&gt;" style="text;html=1;align=center;verticalAlign=middle;resizable=0;points=[];autosize=1;strokeColor=none;fillColor=none;" parent="1" vertex="1">
          <mxGeometry x="302" y="256" width="40" height="30" as="geometry" />
        </mxCell>
        <mxCell id="YcG1K_yQFC_txdDWkhpD-42" value="p[6]" style="text;html=1;align=center;verticalAlign=middle;resizable=0;points=[];autosize=1;strokeColor=none;fillColor=none;" parent="1" vertex="1">
          <mxGeometry x="326" y="256" width="40" height="30" as="geometry" />
        </mxCell>
        <mxCell id="YcG1K_yQFC_txdDWkhpD-43" value="&lt;p style=&quot;line-height: 0%;&quot;&gt;&lt;b style=&quot;&quot;&gt;&lt;font style=&quot;font-size: 12px;&quot;&gt;Scan&lt;/font&gt;&lt;/b&gt;&lt;/p&gt;&lt;p style=&quot;line-height: 0%;&quot;&gt;&lt;b style=&quot;&quot;&gt;&lt;font style=&quot;font-size: 12px;&quot;&gt;DFF&lt;/font&gt;&lt;/b&gt;&lt;/p&gt;&lt;p&gt;&lt;/p&gt;" style="rounded=1;whiteSpace=wrap;html=1;" parent="1" vertex="1">
          <mxGeometry x="430" y="310" width="50" height="50" as="geometry" />
        </mxCell>
        <mxCell id="YcG1K_yQFC_txdDWkhpD-44" value="" style="endArrow=classic;html=1;rounded=0;edgeStyle=orthogonalEdgeStyle;entryX=0;entryY=0.2;entryDx=0;entryDy=0;entryPerimeter=0;endSize=3;" parent="1" edge="1">
          <mxGeometry width="50" height="50" relative="1" as="geometry">
            <mxPoint x="400" y="340" as="sourcePoint" />
            <mxPoint x="430" y="340" as="targetPoint" />
            <Array as="points">
              <mxPoint x="420" y="340" />
            </Array>
          </mxGeometry>
        </mxCell>
        <mxCell id="YcG1K_yQFC_txdDWkhpD-45" value="" style="endArrow=classic;html=1;rounded=0;edgeStyle=orthogonalEdgeStyle;entryX=0;entryY=0.4;entryDx=0;entryDy=0;entryPerimeter=0;exitX=0.033;exitY=1;exitDx=0;exitDy=0;exitPerimeter=0;endSize=3;" parent="1" edge="1">
          <mxGeometry width="50" height="50" relative="1" as="geometry">
            <mxPoint x="420" y="280" as="sourcePoint" />
            <mxPoint x="430" y="330" as="targetPoint" />
            <Array as="points">
              <mxPoint x="420" y="330" />
            </Array>
          </mxGeometry>
        </mxCell>
        <mxCell id="YcG1K_yQFC_txdDWkhpD-46" value="" style="endArrow=classic;html=1;rounded=0;entryX=0.017;entryY=1;entryDx=0;entryDy=0;entryPerimeter=0;" parent="1" edge="1">
          <mxGeometry width="50" height="50" relative="1" as="geometry">
            <mxPoint x="410" y="340" as="sourcePoint" />
            <mxPoint x="410.19999999999993" y="280" as="targetPoint" />
          </mxGeometry>
        </mxCell>
        <mxCell id="YcG1K_yQFC_txdDWkhpD-47" value="" style="endArrow=classic;html=1;rounded=0;entryX=0.017;entryY=1;entryDx=0;entryDy=0;entryPerimeter=0;" parent="1" edge="1">
          <mxGeometry width="50" height="50" relative="1" as="geometry">
            <mxPoint x="439.84000000000003" y="380" as="sourcePoint" />
            <mxPoint x="440.03999999999996" y="360" as="targetPoint" />
          </mxGeometry>
        </mxCell>
        <mxCell id="YcG1K_yQFC_txdDWkhpD-48" value="" style="endArrow=classic;html=1;rounded=0;entryX=0.017;entryY=1;entryDx=0;entryDy=0;entryPerimeter=0;" parent="1" edge="1">
          <mxGeometry width="50" height="50" relative="1" as="geometry">
            <mxPoint x="459.84000000000003" y="390" as="sourcePoint" />
            <mxPoint x="460.03999999999996" y="360" as="targetPoint" />
          </mxGeometry>
        </mxCell>
        <mxCell id="YcG1K_yQFC_txdDWkhpD-49" value="" style="endArrow=classic;html=1;rounded=0;entryX=0.017;entryY=1;entryDx=0;entryDy=0;entryPerimeter=0;" parent="1" edge="1">
          <mxGeometry width="50" height="50" relative="1" as="geometry">
            <mxPoint x="469.84000000000003" y="400" as="sourcePoint" />
            <mxPoint x="470.03999999999996" y="360" as="targetPoint" />
          </mxGeometry>
        </mxCell>
        <mxCell id="YcG1K_yQFC_txdDWkhpD-50" value="" style="shape=ellipse;fillColor=#000000;strokeColor=none;html=1;sketch=0;fontFamily=Helvetica;fontSize=11;fontColor=default;labelBackgroundColor=default;" parent="1" vertex="1">
          <mxGeometry x="407" y="337" width="6" height="6" as="geometry" />
        </mxCell>
        <mxCell id="YcG1K_yQFC_txdDWkhpD-51" value="" style="shape=ellipse;fillColor=#000000;strokeColor=none;html=1;sketch=0;fontFamily=Helvetica;fontSize=11;fontColor=default;labelBackgroundColor=default;" parent="1" vertex="1">
          <mxGeometry x="437" y="377" width="6" height="6" as="geometry" />
        </mxCell>
        <mxCell id="YcG1K_yQFC_txdDWkhpD-52" value="" style="shape=ellipse;fillColor=#000000;strokeColor=none;html=1;sketch=0;fontFamily=Helvetica;fontSize=11;fontColor=default;labelBackgroundColor=default;" parent="1" vertex="1">
          <mxGeometry x="457" y="387" width="6" height="6" as="geometry" />
        </mxCell>
        <mxCell id="YcG1K_yQFC_txdDWkhpD-53" value="" style="shape=ellipse;fillColor=#000000;strokeColor=none;html=1;sketch=0;fontFamily=Helvetica;fontSize=11;fontColor=default;labelBackgroundColor=default;" parent="1" vertex="1">
          <mxGeometry x="467" y="397" width="6" height="6" as="geometry" />
        </mxCell>
        <mxCell id="YcG1K_yQFC_txdDWkhpD-54" value="&lt;font style=&quot;font-size: 8px;&quot;&gt;scan_in&lt;/font&gt;" style="text;html=1;align=center;verticalAlign=middle;resizable=0;points=[];autosize=1;strokeColor=none;fillColor=none;" parent="1" vertex="1">
          <mxGeometry x="390" y="329" width="50" height="30" as="geometry" />
        </mxCell>
        <mxCell id="YcG1K_yQFC_txdDWkhpD-55" value="&lt;font style=&quot;font-size: 8px;&quot;&gt;data&lt;/font&gt;" style="text;html=1;align=center;verticalAlign=middle;resizable=0;points=[];autosize=1;strokeColor=none;fillColor=none;" parent="1" vertex="1">
          <mxGeometry x="411" y="307" width="40" height="30" as="geometry" />
        </mxCell>
        <mxCell id="YcG1K_yQFC_txdDWkhpD-56" value="a[3]&lt;span style=&quot;color: rgba(0, 0, 0, 0); font-family: monospace; font-size: 0px; text-align: start;&quot;&gt;%3CmxGraphModel%3E%3Croot%3E%3CmxCell%20id%3D%220%22%2F%3E%3CmxCell%20id%3D%221%22%20parent%3D%220%22%2F%3E%3CmxCell%20id%3D%222%22%20value%3D%22p%5B7%5D%22%20style%3D%22text%3Bhtml%3D1%3Balign%3Dcenter%3BverticalAlign%3Dmiddle%3Bresizable%3D0%3Bpoints%3D%5B%5D%3Bautosize%3D1%3BstrokeColor%3Dnone%3BfillColor%3Dnone%3B%22%20vertex%3D%221%22%20parent%3D%221%22%3E%3CmxGeometry%20x%3D%22159%22%20y%3D%22256%22%20width%3D%2240%22%20height%3D%2230%22%20as%3D%22geometry%22%2F%3E%3C%2FmxCell%3E%3C%2Froot%3E%3C%2FmxGraphModel%3E&lt;/span&gt;" style="text;html=1;align=center;verticalAlign=middle;resizable=0;points=[];autosize=1;strokeColor=none;fillColor=none;" parent="1" vertex="1">
          <mxGeometry x="382" y="256" width="40" height="30" as="geometry" />
        </mxCell>
        <mxCell id="YcG1K_yQFC_txdDWkhpD-57" value="p[6]" style="text;html=1;align=center;verticalAlign=middle;resizable=0;points=[];autosize=1;strokeColor=none;fillColor=none;" parent="1" vertex="1">
          <mxGeometry x="406" y="256" width="40" height="30" as="geometry" />
        </mxCell>
        <mxCell id="YcG1K_yQFC_txdDWkhpD-58" value="&lt;p style=&quot;line-height: 0%;&quot;&gt;&lt;b style=&quot;&quot;&gt;&lt;font style=&quot;font-size: 12px;&quot;&gt;Scan&lt;/font&gt;&lt;/b&gt;&lt;/p&gt;&lt;p style=&quot;line-height: 0%;&quot;&gt;&lt;b style=&quot;&quot;&gt;&lt;font style=&quot;font-size: 12px;&quot;&gt;DFF&lt;/font&gt;&lt;/b&gt;&lt;/p&gt;&lt;p&gt;&lt;/p&gt;" style="rounded=1;whiteSpace=wrap;html=1;" parent="1" vertex="1">
          <mxGeometry x="510" y="310" width="50" height="50" as="geometry" />
        </mxCell>
        <mxCell id="YcG1K_yQFC_txdDWkhpD-59" value="" style="endArrow=classic;html=1;rounded=0;edgeStyle=orthogonalEdgeStyle;entryX=0;entryY=0.2;entryDx=0;entryDy=0;entryPerimeter=0;endSize=3;" parent="1" edge="1">
          <mxGeometry width="50" height="50" relative="1" as="geometry">
            <mxPoint x="480" y="340" as="sourcePoint" />
            <mxPoint x="510" y="340" as="targetPoint" />
            <Array as="points">
              <mxPoint x="500" y="340" />
            </Array>
          </mxGeometry>
        </mxCell>
        <mxCell id="YcG1K_yQFC_txdDWkhpD-60" value="" style="endArrow=classic;html=1;rounded=0;edgeStyle=orthogonalEdgeStyle;entryX=0;entryY=0.4;entryDx=0;entryDy=0;entryPerimeter=0;exitX=0.033;exitY=1;exitDx=0;exitDy=0;exitPerimeter=0;endSize=3;" parent="1" edge="1">
          <mxGeometry width="50" height="50" relative="1" as="geometry">
            <mxPoint x="500" y="280" as="sourcePoint" />
            <mxPoint x="510" y="330" as="targetPoint" />
            <Array as="points">
              <mxPoint x="500" y="330" />
            </Array>
          </mxGeometry>
        </mxCell>
        <mxCell id="YcG1K_yQFC_txdDWkhpD-61" value="" style="endArrow=classic;html=1;rounded=0;entryX=0.017;entryY=1;entryDx=0;entryDy=0;entryPerimeter=0;" parent="1" edge="1">
          <mxGeometry width="50" height="50" relative="1" as="geometry">
            <mxPoint x="490" y="340" as="sourcePoint" />
            <mxPoint x="490.19999999999993" y="280" as="targetPoint" />
          </mxGeometry>
        </mxCell>
        <mxCell id="YcG1K_yQFC_txdDWkhpD-62" value="" style="endArrow=classic;html=1;rounded=0;entryX=0.017;entryY=1;entryDx=0;entryDy=0;entryPerimeter=0;" parent="1" edge="1">
          <mxGeometry width="50" height="50" relative="1" as="geometry">
            <mxPoint x="519.84" y="380" as="sourcePoint" />
            <mxPoint x="520.04" y="360" as="targetPoint" />
          </mxGeometry>
        </mxCell>
        <mxCell id="YcG1K_yQFC_txdDWkhpD-63" value="" style="endArrow=classic;html=1;rounded=0;entryX=0.017;entryY=1;entryDx=0;entryDy=0;entryPerimeter=0;" parent="1" edge="1">
          <mxGeometry width="50" height="50" relative="1" as="geometry">
            <mxPoint x="539.84" y="390" as="sourcePoint" />
            <mxPoint x="540.04" y="360" as="targetPoint" />
          </mxGeometry>
        </mxCell>
        <mxCell id="YcG1K_yQFC_txdDWkhpD-64" value="" style="endArrow=classic;html=1;rounded=0;entryX=0.017;entryY=1;entryDx=0;entryDy=0;entryPerimeter=0;" parent="1" edge="1">
          <mxGeometry width="50" height="50" relative="1" as="geometry">
            <mxPoint x="549.84" y="400" as="sourcePoint" />
            <mxPoint x="550.04" y="360" as="targetPoint" />
          </mxGeometry>
        </mxCell>
        <mxCell id="YcG1K_yQFC_txdDWkhpD-65" value="" style="shape=ellipse;fillColor=#000000;strokeColor=none;html=1;sketch=0;fontFamily=Helvetica;fontSize=11;fontColor=default;labelBackgroundColor=default;" parent="1" vertex="1">
          <mxGeometry x="487" y="337" width="6" height="6" as="geometry" />
        </mxCell>
        <mxCell id="YcG1K_yQFC_txdDWkhpD-66" value="" style="shape=ellipse;fillColor=#000000;strokeColor=none;html=1;sketch=0;fontFamily=Helvetica;fontSize=11;fontColor=default;labelBackgroundColor=default;" parent="1" vertex="1">
          <mxGeometry x="517" y="377" width="6" height="6" as="geometry" />
        </mxCell>
        <mxCell id="YcG1K_yQFC_txdDWkhpD-67" value="" style="shape=ellipse;fillColor=#000000;strokeColor=none;html=1;sketch=0;fontFamily=Helvetica;fontSize=11;fontColor=default;labelBackgroundColor=default;" parent="1" vertex="1">
          <mxGeometry x="537" y="387" width="6" height="6" as="geometry" />
        </mxCell>
        <mxCell id="YcG1K_yQFC_txdDWkhpD-68" value="" style="shape=ellipse;fillColor=#000000;strokeColor=none;html=1;sketch=0;fontFamily=Helvetica;fontSize=11;fontColor=default;labelBackgroundColor=default;" parent="1" vertex="1">
          <mxGeometry x="547" y="397" width="6" height="6" as="geometry" />
        </mxCell>
        <mxCell id="YcG1K_yQFC_txdDWkhpD-69" value="&lt;font style=&quot;font-size: 8px;&quot;&gt;scan_in&lt;/font&gt;" style="text;html=1;align=center;verticalAlign=middle;resizable=0;points=[];autosize=1;strokeColor=none;fillColor=none;" parent="1" vertex="1">
          <mxGeometry x="470" y="329" width="50" height="30" as="geometry" />
        </mxCell>
        <mxCell id="YcG1K_yQFC_txdDWkhpD-70" value="&lt;font style=&quot;font-size: 8px;&quot;&gt;data&lt;/font&gt;" style="text;html=1;align=center;verticalAlign=middle;resizable=0;points=[];autosize=1;strokeColor=none;fillColor=none;" parent="1" vertex="1">
          <mxGeometry x="491" y="307" width="40" height="30" as="geometry" />
        </mxCell>
        <mxCell id="YcG1K_yQFC_txdDWkhpD-71" value="a[3]&lt;span style=&quot;color: rgba(0, 0, 0, 0); font-family: monospace; font-size: 0px; text-align: start;&quot;&gt;%3CmxGraphModel%3E%3Croot%3E%3CmxCell%20id%3D%220%22%2F%3E%3CmxCell%20id%3D%221%22%20parent%3D%220%22%2F%3E%3CmxCell%20id%3D%222%22%20value%3D%22p%5B7%5D%22%20style%3D%22text%3Bhtml%3D1%3Balign%3Dcenter%3BverticalAlign%3Dmiddle%3Bresizable%3D0%3Bpoints%3D%5B%5D%3Bautosize%3D1%3BstrokeColor%3Dnone%3BfillColor%3Dnone%3B%22%20vertex%3D%221%22%20parent%3D%221%22%3E%3CmxGeometry%20x%3D%22159%22%20y%3D%22256%22%20width%3D%2240%22%20height%3D%2230%22%20as%3D%22geometry%22%2F%3E%3C%2FmxCell%3E%3C%2Froot%3E%3C%2FmxGraphModel%3E&lt;/span&gt;" style="text;html=1;align=center;verticalAlign=middle;resizable=0;points=[];autosize=1;strokeColor=none;fillColor=none;" parent="1" vertex="1">
          <mxGeometry x="462" y="256" width="40" height="30" as="geometry" />
        </mxCell>
        <mxCell id="YcG1K_yQFC_txdDWkhpD-72" value="p[6]" style="text;html=1;align=center;verticalAlign=middle;resizable=0;points=[];autosize=1;strokeColor=none;fillColor=none;" parent="1" vertex="1">
          <mxGeometry x="486" y="256" width="40" height="30" as="geometry" />
        </mxCell>
        <mxCell id="YcG1K_yQFC_txdDWkhpD-73" value="&lt;p style=&quot;line-height: 0%;&quot;&gt;&lt;b style=&quot;&quot;&gt;&lt;font style=&quot;font-size: 12px;&quot;&gt;Scan&lt;/font&gt;&lt;/b&gt;&lt;/p&gt;&lt;p style=&quot;line-height: 0%;&quot;&gt;&lt;b style=&quot;&quot;&gt;&lt;font style=&quot;font-size: 12px;&quot;&gt;DFF&lt;/font&gt;&lt;/b&gt;&lt;/p&gt;&lt;p&gt;&lt;/p&gt;" style="rounded=1;whiteSpace=wrap;html=1;" parent="1" vertex="1">
          <mxGeometry x="590" y="310" width="50" height="50" as="geometry" />
        </mxCell>
        <mxCell id="YcG1K_yQFC_txdDWkhpD-74" value="" style="endArrow=classic;html=1;rounded=0;edgeStyle=orthogonalEdgeStyle;entryX=0;entryY=0.2;entryDx=0;entryDy=0;entryPerimeter=0;endSize=3;" parent="1" edge="1">
          <mxGeometry width="50" height="50" relative="1" as="geometry">
            <mxPoint x="560" y="340" as="sourcePoint" />
            <mxPoint x="590" y="340" as="targetPoint" />
            <Array as="points">
              <mxPoint x="580" y="340" />
            </Array>
          </mxGeometry>
        </mxCell>
        <mxCell id="YcG1K_yQFC_txdDWkhpD-75" value="" style="endArrow=classic;html=1;rounded=0;edgeStyle=orthogonalEdgeStyle;entryX=0;entryY=0.4;entryDx=0;entryDy=0;entryPerimeter=0;exitX=0.033;exitY=1;exitDx=0;exitDy=0;exitPerimeter=0;endSize=3;" parent="1" edge="1">
          <mxGeometry width="50" height="50" relative="1" as="geometry">
            <mxPoint x="580" y="280" as="sourcePoint" />
            <mxPoint x="590" y="330" as="targetPoint" />
            <Array as="points">
              <mxPoint x="580" y="330" />
            </Array>
          </mxGeometry>
        </mxCell>
        <mxCell id="YcG1K_yQFC_txdDWkhpD-76" value="" style="endArrow=classic;html=1;rounded=0;entryX=0.017;entryY=1;entryDx=0;entryDy=0;entryPerimeter=0;" parent="1" edge="1">
          <mxGeometry width="50" height="50" relative="1" as="geometry">
            <mxPoint x="570" y="340" as="sourcePoint" />
            <mxPoint x="570.1999999999999" y="280" as="targetPoint" />
          </mxGeometry>
        </mxCell>
        <mxCell id="YcG1K_yQFC_txdDWkhpD-77" value="" style="endArrow=classic;html=1;rounded=0;entryX=0.017;entryY=1;entryDx=0;entryDy=0;entryPerimeter=0;" parent="1" edge="1">
          <mxGeometry width="50" height="50" relative="1" as="geometry">
            <mxPoint x="599.84" y="380" as="sourcePoint" />
            <mxPoint x="600.04" y="360" as="targetPoint" />
          </mxGeometry>
        </mxCell>
        <mxCell id="YcG1K_yQFC_txdDWkhpD-78" value="" style="endArrow=classic;html=1;rounded=0;entryX=0.017;entryY=1;entryDx=0;entryDy=0;entryPerimeter=0;" parent="1" edge="1">
          <mxGeometry width="50" height="50" relative="1" as="geometry">
            <mxPoint x="619.84" y="390" as="sourcePoint" />
            <mxPoint x="620.04" y="360" as="targetPoint" />
          </mxGeometry>
        </mxCell>
        <mxCell id="YcG1K_yQFC_txdDWkhpD-79" value="" style="endArrow=classic;html=1;rounded=0;entryX=0.017;entryY=1;entryDx=0;entryDy=0;entryPerimeter=0;" parent="1" edge="1">
          <mxGeometry width="50" height="50" relative="1" as="geometry">
            <mxPoint x="629.84" y="400" as="sourcePoint" />
            <mxPoint x="630.04" y="360" as="targetPoint" />
          </mxGeometry>
        </mxCell>
        <mxCell id="YcG1K_yQFC_txdDWkhpD-80" value="" style="shape=ellipse;fillColor=#000000;strokeColor=none;html=1;sketch=0;fontFamily=Helvetica;fontSize=11;fontColor=default;labelBackgroundColor=default;" parent="1" vertex="1">
          <mxGeometry x="567" y="337" width="6" height="6" as="geometry" />
        </mxCell>
        <mxCell id="YcG1K_yQFC_txdDWkhpD-81" value="" style="shape=ellipse;fillColor=#000000;strokeColor=none;html=1;sketch=0;fontFamily=Helvetica;fontSize=11;fontColor=default;labelBackgroundColor=default;" parent="1" vertex="1">
          <mxGeometry x="597" y="377" width="6" height="6" as="geometry" />
        </mxCell>
        <mxCell id="YcG1K_yQFC_txdDWkhpD-82" value="" style="shape=ellipse;fillColor=#000000;strokeColor=none;html=1;sketch=0;fontFamily=Helvetica;fontSize=11;fontColor=default;labelBackgroundColor=default;" parent="1" vertex="1">
          <mxGeometry x="617" y="387" width="6" height="6" as="geometry" />
        </mxCell>
        <mxCell id="YcG1K_yQFC_txdDWkhpD-83" value="" style="shape=ellipse;fillColor=#000000;strokeColor=none;html=1;sketch=0;fontFamily=Helvetica;fontSize=11;fontColor=default;labelBackgroundColor=default;" parent="1" vertex="1">
          <mxGeometry x="627" y="397" width="6" height="6" as="geometry" />
        </mxCell>
        <mxCell id="YcG1K_yQFC_txdDWkhpD-84" value="&lt;font style=&quot;font-size: 8px;&quot;&gt;scan_in&lt;/font&gt;" style="text;html=1;align=center;verticalAlign=middle;resizable=0;points=[];autosize=1;strokeColor=none;fillColor=none;" parent="1" vertex="1">
          <mxGeometry x="550" y="329" width="50" height="30" as="geometry" />
        </mxCell>
        <mxCell id="YcG1K_yQFC_txdDWkhpD-85" value="&lt;font style=&quot;font-size: 8px;&quot;&gt;data&lt;/font&gt;" style="text;html=1;align=center;verticalAlign=middle;resizable=0;points=[];autosize=1;strokeColor=none;fillColor=none;" parent="1" vertex="1">
          <mxGeometry x="571" y="307" width="40" height="30" as="geometry" />
        </mxCell>
        <mxCell id="YcG1K_yQFC_txdDWkhpD-86" value="a[3]&lt;span style=&quot;color: rgba(0, 0, 0, 0); font-family: monospace; font-size: 0px; text-align: start;&quot;&gt;%3CmxGraphModel%3E%3Croot%3E%3CmxCell%20id%3D%220%22%2F%3E%3CmxCell%20id%3D%221%22%20parent%3D%220%22%2F%3E%3CmxCell%20id%3D%222%22%20value%3D%22p%5B7%5D%22%20style%3D%22text%3Bhtml%3D1%3Balign%3Dcenter%3BverticalAlign%3Dmiddle%3Bresizable%3D0%3Bpoints%3D%5B%5D%3Bautosize%3D1%3BstrokeColor%3Dnone%3BfillColor%3Dnone%3B%22%20vertex%3D%221%22%20parent%3D%221%22%3E%3CmxGeometry%20x%3D%22159%22%20y%3D%22256%22%20width%3D%2240%22%20height%3D%2230%22%20as%3D%22geometry%22%2F%3E%3C%2FmxCell%3E%3C%2Froot%3E%3C%2FmxGraphModel%3E&lt;/span&gt;" style="text;html=1;align=center;verticalAlign=middle;resizable=0;points=[];autosize=1;strokeColor=none;fillColor=none;" parent="1" vertex="1">
          <mxGeometry x="542" y="256" width="40" height="30" as="geometry" />
        </mxCell>
        <mxCell id="YcG1K_yQFC_txdDWkhpD-87" value="p[6]" style="text;html=1;align=center;verticalAlign=middle;resizable=0;points=[];autosize=1;strokeColor=none;fillColor=none;" parent="1" vertex="1">
          <mxGeometry x="566" y="256" width="40" height="30" as="geometry" />
        </mxCell>
        <mxCell id="YcG1K_yQFC_txdDWkhpD-88" value="&lt;p style=&quot;line-height: 0%;&quot;&gt;&lt;b style=&quot;&quot;&gt;&lt;font style=&quot;font-size: 12px;&quot;&gt;Scan&lt;/font&gt;&lt;/b&gt;&lt;/p&gt;&lt;p style=&quot;line-height: 0%;&quot;&gt;&lt;b style=&quot;&quot;&gt;&lt;font style=&quot;font-size: 12px;&quot;&gt;DFF&lt;/font&gt;&lt;/b&gt;&lt;/p&gt;&lt;p&gt;&lt;/p&gt;" style="rounded=1;whiteSpace=wrap;html=1;" parent="1" vertex="1">
          <mxGeometry x="670" y="310" width="50" height="50" as="geometry" />
        </mxCell>
        <mxCell id="YcG1K_yQFC_txdDWkhpD-89" value="" style="endArrow=classic;html=1;rounded=0;edgeStyle=orthogonalEdgeStyle;entryX=0;entryY=0.2;entryDx=0;entryDy=0;entryPerimeter=0;endSize=3;" parent="1" edge="1">
          <mxGeometry width="50" height="50" relative="1" as="geometry">
            <mxPoint x="640" y="340" as="sourcePoint" />
            <mxPoint x="670" y="340" as="targetPoint" />
            <Array as="points">
              <mxPoint x="660" y="340" />
            </Array>
          </mxGeometry>
        </mxCell>
        <mxCell id="YcG1K_yQFC_txdDWkhpD-90" value="" style="endArrow=classic;html=1;rounded=0;edgeStyle=orthogonalEdgeStyle;entryX=0;entryY=0.4;entryDx=0;entryDy=0;entryPerimeter=0;exitX=0.033;exitY=1;exitDx=0;exitDy=0;exitPerimeter=0;endSize=3;" parent="1" edge="1">
          <mxGeometry width="50" height="50" relative="1" as="geometry">
            <mxPoint x="660" y="280" as="sourcePoint" />
            <mxPoint x="670" y="330" as="targetPoint" />
            <Array as="points">
              <mxPoint x="660" y="330" />
            </Array>
          </mxGeometry>
        </mxCell>
        <mxCell id="YcG1K_yQFC_txdDWkhpD-91" value="" style="endArrow=classic;html=1;rounded=0;entryX=0.017;entryY=1;entryDx=0;entryDy=0;entryPerimeter=0;" parent="1" edge="1">
          <mxGeometry width="50" height="50" relative="1" as="geometry">
            <mxPoint x="650" y="340" as="sourcePoint" />
            <mxPoint x="650.1999999999999" y="280" as="targetPoint" />
          </mxGeometry>
        </mxCell>
        <mxCell id="YcG1K_yQFC_txdDWkhpD-92" value="" style="endArrow=classic;html=1;rounded=0;entryX=0.017;entryY=1;entryDx=0;entryDy=0;entryPerimeter=0;" parent="1" edge="1">
          <mxGeometry width="50" height="50" relative="1" as="geometry">
            <mxPoint x="679.84" y="380" as="sourcePoint" />
            <mxPoint x="680.04" y="360" as="targetPoint" />
          </mxGeometry>
        </mxCell>
        <mxCell id="YcG1K_yQFC_txdDWkhpD-93" value="" style="endArrow=classic;html=1;rounded=0;entryX=0.017;entryY=1;entryDx=0;entryDy=0;entryPerimeter=0;" parent="1" edge="1">
          <mxGeometry width="50" height="50" relative="1" as="geometry">
            <mxPoint x="699.84" y="390" as="sourcePoint" />
            <mxPoint x="700.04" y="360" as="targetPoint" />
          </mxGeometry>
        </mxCell>
        <mxCell id="YcG1K_yQFC_txdDWkhpD-94" value="" style="endArrow=classic;html=1;rounded=0;entryX=0.017;entryY=1;entryDx=0;entryDy=0;entryPerimeter=0;" parent="1" edge="1">
          <mxGeometry width="50" height="50" relative="1" as="geometry">
            <mxPoint x="709.84" y="400" as="sourcePoint" />
            <mxPoint x="710.04" y="360" as="targetPoint" />
          </mxGeometry>
        </mxCell>
        <mxCell id="YcG1K_yQFC_txdDWkhpD-95" value="" style="shape=ellipse;fillColor=#000000;strokeColor=none;html=1;sketch=0;fontFamily=Helvetica;fontSize=11;fontColor=default;labelBackgroundColor=default;" parent="1" vertex="1">
          <mxGeometry x="647" y="337" width="6" height="6" as="geometry" />
        </mxCell>
        <mxCell id="YcG1K_yQFC_txdDWkhpD-96" value="" style="shape=ellipse;fillColor=#000000;strokeColor=none;html=1;sketch=0;fontFamily=Helvetica;fontSize=11;fontColor=default;labelBackgroundColor=default;" parent="1" vertex="1">
          <mxGeometry x="677" y="377" width="6" height="6" as="geometry" />
        </mxCell>
        <mxCell id="YcG1K_yQFC_txdDWkhpD-97" value="" style="shape=ellipse;fillColor=#000000;strokeColor=none;html=1;sketch=0;fontFamily=Helvetica;fontSize=11;fontColor=default;labelBackgroundColor=default;" parent="1" vertex="1">
          <mxGeometry x="697" y="387" width="6" height="6" as="geometry" />
        </mxCell>
        <mxCell id="YcG1K_yQFC_txdDWkhpD-98" value="" style="shape=ellipse;fillColor=#000000;strokeColor=none;html=1;sketch=0;fontFamily=Helvetica;fontSize=11;fontColor=default;labelBackgroundColor=default;" parent="1" vertex="1">
          <mxGeometry x="707" y="397" width="6" height="6" as="geometry" />
        </mxCell>
        <mxCell id="YcG1K_yQFC_txdDWkhpD-99" value="&lt;font style=&quot;font-size: 8px;&quot;&gt;scan_in&lt;/font&gt;" style="text;html=1;align=center;verticalAlign=middle;resizable=0;points=[];autosize=1;strokeColor=none;fillColor=none;" parent="1" vertex="1">
          <mxGeometry x="630" y="329" width="50" height="30" as="geometry" />
        </mxCell>
        <mxCell id="YcG1K_yQFC_txdDWkhpD-100" value="&lt;font style=&quot;font-size: 8px;&quot;&gt;data&lt;/font&gt;" style="text;html=1;align=center;verticalAlign=middle;resizable=0;points=[];autosize=1;strokeColor=none;fillColor=none;" parent="1" vertex="1">
          <mxGeometry x="651" y="307" width="40" height="30" as="geometry" />
        </mxCell>
        <mxCell id="YcG1K_yQFC_txdDWkhpD-101" value="a[3]&lt;span style=&quot;color: rgba(0, 0, 0, 0); font-family: monospace; font-size: 0px; text-align: start;&quot;&gt;%3CmxGraphModel%3E%3Croot%3E%3CmxCell%20id%3D%220%22%2F%3E%3CmxCell%20id%3D%221%22%20parent%3D%220%22%2F%3E%3CmxCell%20id%3D%222%22%20value%3D%22p%5B7%5D%22%20style%3D%22text%3Bhtml%3D1%3Balign%3Dcenter%3BverticalAlign%3Dmiddle%3Bresizable%3D0%3Bpoints%3D%5B%5D%3Bautosize%3D1%3BstrokeColor%3Dnone%3BfillColor%3Dnone%3B%22%20vertex%3D%221%22%20parent%3D%221%22%3E%3CmxGeometry%20x%3D%22159%22%20y%3D%22256%22%20width%3D%2240%22%20height%3D%2230%22%20as%3D%22geometry%22%2F%3E%3C%2FmxCell%3E%3C%2Froot%3E%3C%2FmxGraphModel%3E&lt;/span&gt;" style="text;html=1;align=center;verticalAlign=middle;resizable=0;points=[];autosize=1;strokeColor=none;fillColor=none;" parent="1" vertex="1">
          <mxGeometry x="622" y="256" width="40" height="30" as="geometry" />
        </mxCell>
        <mxCell id="YcG1K_yQFC_txdDWkhpD-102" value="p[6]" style="text;html=1;align=center;verticalAlign=middle;resizable=0;points=[];autosize=1;strokeColor=none;fillColor=none;" parent="1" vertex="1">
          <mxGeometry x="646" y="256" width="40" height="30" as="geometry" />
        </mxCell>
        <mxCell id="YcG1K_yQFC_txdDWkhpD-103" value="&lt;p style=&quot;line-height: 0%;&quot;&gt;&lt;b style=&quot;&quot;&gt;&lt;font style=&quot;font-size: 12px;&quot;&gt;Scan&lt;/font&gt;&lt;/b&gt;&lt;/p&gt;&lt;p style=&quot;line-height: 0%;&quot;&gt;&lt;b style=&quot;&quot;&gt;&lt;font style=&quot;font-size: 12px;&quot;&gt;DFF&lt;/font&gt;&lt;/b&gt;&lt;/p&gt;&lt;p&gt;&lt;/p&gt;" style="rounded=1;whiteSpace=wrap;html=1;" parent="1" vertex="1">
          <mxGeometry x="750" y="310" width="50" height="50" as="geometry" />
        </mxCell>
        <mxCell id="YcG1K_yQFC_txdDWkhpD-104" value="" style="endArrow=classic;html=1;rounded=0;edgeStyle=orthogonalEdgeStyle;entryX=0;entryY=0.2;entryDx=0;entryDy=0;entryPerimeter=0;endSize=3;" parent="1" edge="1">
          <mxGeometry width="50" height="50" relative="1" as="geometry">
            <mxPoint x="720" y="340" as="sourcePoint" />
            <mxPoint x="750" y="340" as="targetPoint" />
            <Array as="points">
              <mxPoint x="740" y="340" />
            </Array>
          </mxGeometry>
        </mxCell>
        <mxCell id="YcG1K_yQFC_txdDWkhpD-105" value="" style="endArrow=classic;html=1;rounded=0;edgeStyle=orthogonalEdgeStyle;entryX=0;entryY=0.4;entryDx=0;entryDy=0;entryPerimeter=0;exitX=0.033;exitY=1;exitDx=0;exitDy=0;exitPerimeter=0;endSize=3;" parent="1" edge="1">
          <mxGeometry width="50" height="50" relative="1" as="geometry">
            <mxPoint x="740" y="280" as="sourcePoint" />
            <mxPoint x="750" y="330" as="targetPoint" />
            <Array as="points">
              <mxPoint x="740" y="330" />
            </Array>
          </mxGeometry>
        </mxCell>
        <mxCell id="YcG1K_yQFC_txdDWkhpD-106" value="" style="endArrow=classic;html=1;rounded=0;entryX=0.017;entryY=1;entryDx=0;entryDy=0;entryPerimeter=0;" parent="1" edge="1">
          <mxGeometry width="50" height="50" relative="1" as="geometry">
            <mxPoint x="730" y="340" as="sourcePoint" />
            <mxPoint x="730.1999999999999" y="280" as="targetPoint" />
          </mxGeometry>
        </mxCell>
        <mxCell id="YcG1K_yQFC_txdDWkhpD-107" value="" style="endArrow=classic;html=1;rounded=0;entryX=0.017;entryY=1;entryDx=0;entryDy=0;entryPerimeter=0;edgeStyle=orthogonalEdgeStyle;" parent="1" edge="1">
          <mxGeometry width="50" height="50" relative="1" as="geometry">
            <mxPoint x="160" y="380" as="sourcePoint" />
            <mxPoint x="760.04" y="360" as="targetPoint" />
            <Array as="points">
              <mxPoint x="760" y="380" />
            </Array>
          </mxGeometry>
        </mxCell>
        <mxCell id="YcG1K_yQFC_txdDWkhpD-110" value="" style="shape=ellipse;fillColor=#000000;strokeColor=none;html=1;sketch=0;fontFamily=Helvetica;fontSize=11;fontColor=default;labelBackgroundColor=default;" parent="1" vertex="1">
          <mxGeometry x="727" y="337" width="6" height="6" as="geometry" />
        </mxCell>
        <mxCell id="YcG1K_yQFC_txdDWkhpD-111" value="" style="shape=ellipse;fillColor=#000000;strokeColor=none;html=1;sketch=0;fontFamily=Helvetica;fontSize=11;fontColor=default;labelBackgroundColor=default;" parent="1" vertex="1">
          <mxGeometry x="757" y="377" width="6" height="6" as="geometry" />
        </mxCell>
        <mxCell id="YcG1K_yQFC_txdDWkhpD-112" value="" style="shape=ellipse;fillColor=#000000;strokeColor=none;html=1;sketch=0;fontFamily=Helvetica;fontSize=11;fontColor=default;labelBackgroundColor=default;" parent="1" vertex="1">
          <mxGeometry x="777" y="387" width="6" height="6" as="geometry" />
        </mxCell>
        <mxCell id="YcG1K_yQFC_txdDWkhpD-113" value="" style="shape=ellipse;fillColor=#000000;strokeColor=none;html=1;sketch=0;fontFamily=Helvetica;fontSize=11;fontColor=default;labelBackgroundColor=default;" parent="1" vertex="1">
          <mxGeometry x="787" y="397" width="6" height="6" as="geometry" />
        </mxCell>
        <mxCell id="YcG1K_yQFC_txdDWkhpD-114" value="&lt;font style=&quot;font-size: 8px;&quot;&gt;scan_in&lt;/font&gt;" style="text;html=1;align=center;verticalAlign=middle;resizable=0;points=[];autosize=1;strokeColor=none;fillColor=none;" parent="1" vertex="1">
          <mxGeometry x="710" y="329" width="50" height="30" as="geometry" />
        </mxCell>
        <mxCell id="YcG1K_yQFC_txdDWkhpD-115" value="&lt;font style=&quot;font-size: 8px;&quot;&gt;data&lt;/font&gt;" style="text;html=1;align=center;verticalAlign=middle;resizable=0;points=[];autosize=1;strokeColor=none;fillColor=none;" parent="1" vertex="1">
          <mxGeometry x="731" y="307" width="40" height="30" as="geometry" />
        </mxCell>
        <mxCell id="YcG1K_yQFC_txdDWkhpD-116" value="a[3]&lt;span style=&quot;color: rgba(0, 0, 0, 0); font-family: monospace; font-size: 0px; text-align: start;&quot;&gt;%3CmxGraphModel%3E%3Croot%3E%3CmxCell%20id%3D%220%22%2F%3E%3CmxCell%20id%3D%221%22%20parent%3D%220%22%2F%3E%3CmxCell%20id%3D%222%22%20value%3D%22p%5B7%5D%22%20style%3D%22text%3Bhtml%3D1%3Balign%3Dcenter%3BverticalAlign%3Dmiddle%3Bresizable%3D0%3Bpoints%3D%5B%5D%3Bautosize%3D1%3BstrokeColor%3Dnone%3BfillColor%3Dnone%3B%22%20vertex%3D%221%22%20parent%3D%221%22%3E%3CmxGeometry%20x%3D%22159%22%20y%3D%22256%22%20width%3D%2240%22%20height%3D%2230%22%20as%3D%22geometry%22%2F%3E%3C%2FmxCell%3E%3C%2Froot%3E%3C%2FmxGraphModel%3E&lt;/span&gt;" style="text;html=1;align=center;verticalAlign=middle;resizable=0;points=[];autosize=1;strokeColor=none;fillColor=none;" parent="1" vertex="1">
          <mxGeometry x="702" y="256" width="40" height="30" as="geometry" />
        </mxCell>
        <mxCell id="YcG1K_yQFC_txdDWkhpD-117" value="p[6]" style="text;html=1;align=center;verticalAlign=middle;resizable=0;points=[];autosize=1;strokeColor=none;fillColor=none;" parent="1" vertex="1">
          <mxGeometry x="726" y="256" width="40" height="30" as="geometry" />
        </mxCell>
        <mxCell id="YcG1K_yQFC_txdDWkhpD-119" value="" style="endArrow=classic;html=1;rounded=0;edgeStyle=orthogonalEdgeStyle;endSize=3;" parent="1" edge="1">
          <mxGeometry width="50" height="50" relative="1" as="geometry">
            <mxPoint x="800" y="340" as="sourcePoint" />
            <mxPoint x="820" y="360" as="targetPoint" />
            <Array as="points">
              <mxPoint x="820" y="340" />
            </Array>
          </mxGeometry>
        </mxCell>
        <mxCell id="YcG1K_yQFC_txdDWkhpD-121" value="" style="endArrow=classic;html=1;rounded=0;entryX=0.017;entryY=1;entryDx=0;entryDy=0;entryPerimeter=0;" parent="1" edge="1">
          <mxGeometry width="50" height="50" relative="1" as="geometry">
            <mxPoint x="810" y="340" as="sourcePoint" />
            <mxPoint x="810.1999999999999" y="280" as="targetPoint" />
          </mxGeometry>
        </mxCell>
        <mxCell id="YcG1K_yQFC_txdDWkhpD-125" value="" style="shape=ellipse;fillColor=#000000;strokeColor=none;html=1;sketch=0;fontFamily=Helvetica;fontSize=11;fontColor=default;labelBackgroundColor=default;" parent="1" vertex="1">
          <mxGeometry x="807" y="337" width="6" height="6" as="geometry" />
        </mxCell>
        <mxCell id="YcG1K_yQFC_txdDWkhpD-131" value="a[3]&lt;span style=&quot;color: rgba(0, 0, 0, 0); font-family: monospace; font-size: 0px; text-align: start;&quot;&gt;%3CmxGraphModel%3E%3Croot%3E%3CmxCell%20id%3D%220%22%2F%3E%3CmxCell%20id%3D%221%22%20parent%3D%220%22%2F%3E%3CmxCell%20id%3D%222%22%20value%3D%22p%5B7%5D%22%20style%3D%22text%3Bhtml%3D1%3Balign%3Dcenter%3BverticalAlign%3Dmiddle%3Bresizable%3D0%3Bpoints%3D%5B%5D%3Bautosize%3D1%3BstrokeColor%3Dnone%3BfillColor%3Dnone%3B%22%20vertex%3D%221%22%20parent%3D%221%22%3E%3CmxGeometry%20x%3D%22159%22%20y%3D%22256%22%20width%3D%2240%22%20height%3D%2230%22%20as%3D%22geometry%22%2F%3E%3C%2FmxCell%3E%3C%2Froot%3E%3C%2FmxGraphModel%3E&lt;/span&gt;" style="text;html=1;align=center;verticalAlign=middle;resizable=0;points=[];autosize=1;strokeColor=none;fillColor=none;" parent="1" vertex="1">
          <mxGeometry x="782" y="256" width="40" height="30" as="geometry" />
        </mxCell>
        <mxCell id="YcG1K_yQFC_txdDWkhpD-133" value="scan_out" style="text;html=1;align=center;verticalAlign=middle;resizable=0;points=[];autosize=1;strokeColor=none;fillColor=none;" parent="1" vertex="1">
          <mxGeometry x="800" y="351" width="70" height="30" as="geometry" />
        </mxCell>
        <mxCell id="YcG1K_yQFC_txdDWkhpD-134" value="scan_in" style="text;html=1;align=center;verticalAlign=middle;resizable=0;points=[];autosize=1;strokeColor=none;fillColor=none;" parent="1" vertex="1">
          <mxGeometry x="105" y="325" width="60" height="30" as="geometry" />
        </mxCell>
        <mxCell id="YcG1K_yQFC_txdDWkhpD-135" value="" style="endArrow=classic;html=1;rounded=0;entryX=0.6;entryY=1;entryDx=0;entryDy=0;entryPerimeter=0;edgeStyle=orthogonalEdgeStyle;" parent="1" target="YcG1K_yQFC_txdDWkhpD-103" edge="1">
          <mxGeometry width="50" height="50" relative="1" as="geometry">
            <mxPoint x="160" y="390" as="sourcePoint" />
            <mxPoint x="770.04" y="370" as="targetPoint" />
            <Array as="points">
              <mxPoint x="780" y="390" />
            </Array>
          </mxGeometry>
        </mxCell>
        <mxCell id="YcG1K_yQFC_txdDWkhpD-136" value="" style="endArrow=classic;html=1;rounded=0;edgeStyle=orthogonalEdgeStyle;" parent="1" edge="1">
          <mxGeometry width="50" height="50" relative="1" as="geometry">
            <mxPoint x="160" y="400" as="sourcePoint" />
            <mxPoint x="790" y="360" as="targetPoint" />
            <Array as="points">
              <mxPoint x="790" y="400" />
            </Array>
          </mxGeometry>
        </mxCell>
        <mxCell id="YcG1K_yQFC_txdDWkhpD-137" value="scan_en" style="text;html=1;align=center;verticalAlign=middle;resizable=0;points=[];autosize=1;strokeColor=none;fillColor=none;" parent="1" vertex="1">
          <mxGeometry x="100" y="362" width="70" height="30" as="geometry" />
        </mxCell>
        <mxCell id="YcG1K_yQFC_txdDWkhpD-139" value="clk" style="text;html=1;align=center;verticalAlign=middle;resizable=0;points=[];autosize=1;strokeColor=none;fillColor=none;" parent="1" vertex="1">
          <mxGeometry x="130" y="374" width="40" height="30" as="geometry" />
        </mxCell>
        <mxCell id="YcG1K_yQFC_txdDWkhpD-140" value="rst_n" style="text;html=1;align=center;verticalAlign=middle;resizable=0;points=[];autosize=1;strokeColor=none;fillColor=none;" parent="1" vertex="1">
          <mxGeometry x="119" y="384" width="50" height="30" as="geometry" />
        </mxCell>
        <mxCell id="YcG1K_yQFC_txdDWkhpD-141" value="" style="triangle;whiteSpace=wrap;html=1;rotation=-90;" parent="1" vertex="1">
          <mxGeometry x="216.5" y="351.5" width="7" height="9" as="geometry" />
        </mxCell>
        <mxCell id="YcG1K_yQFC_txdDWkhpD-142" value="" style="triangle;whiteSpace=wrap;html=1;rotation=-90;" parent="1" vertex="1">
          <mxGeometry x="296.5" y="351.5" width="7" height="9" as="geometry" />
        </mxCell>
        <mxCell id="YcG1K_yQFC_txdDWkhpD-143" value="" style="triangle;whiteSpace=wrap;html=1;rotation=-90;" parent="1" vertex="1">
          <mxGeometry x="376.5" y="351.5" width="7" height="9" as="geometry" />
        </mxCell>
        <mxCell id="YcG1K_yQFC_txdDWkhpD-144" value="" style="triangle;whiteSpace=wrap;html=1;rotation=-90;" parent="1" vertex="1">
          <mxGeometry x="456.5" y="351.5" width="7" height="9" as="geometry" />
        </mxCell>
        <mxCell id="YcG1K_yQFC_txdDWkhpD-145" value="" style="triangle;whiteSpace=wrap;html=1;rotation=-90;" parent="1" vertex="1">
          <mxGeometry x="536.5" y="351.5" width="7" height="9" as="geometry" />
        </mxCell>
        <mxCell id="YcG1K_yQFC_txdDWkhpD-146" value="" style="triangle;whiteSpace=wrap;html=1;rotation=-90;" parent="1" vertex="1">
          <mxGeometry x="616.5" y="351.5" width="7" height="9" as="geometry" />
        </mxCell>
        <mxCell id="YcG1K_yQFC_txdDWkhpD-147" value="" style="triangle;whiteSpace=wrap;html=1;rotation=-90;" parent="1" vertex="1">
          <mxGeometry x="696.5" y="351.5" width="7" height="9" as="geometry" />
        </mxCell>
        <mxCell id="YcG1K_yQFC_txdDWkhpD-148" value="" style="triangle;whiteSpace=wrap;html=1;rotation=-90;" parent="1" vertex="1">
          <mxGeometry x="776.5" y="351.5" width="7" height="9" as="geometry" />
        </mxCell>
        <mxCell id="YcG1K_yQFC_txdDWkhpD-150" value="&lt;div style=&quot;color: rgb(248, 248, 242); background-color: rgb(38, 41, 44); font-family: &amp;quot;Fira Code&amp;quot;, Consolas, &amp;quot;Courier New&amp;quot;, monospace, Menlo, Monaco, &amp;quot;Courier New&amp;quot;, monospace; font-size: 16px; line-height: 24px; white-space-collapse: preserve;&quot;&gt;Top Module&lt;/div&gt;" style="text;html=1;align=center;verticalAlign=middle;resizable=0;points=[];autosize=1;strokeColor=none;fillColor=none;" parent="1" vertex="1">
          <mxGeometry x="50" y="120" width="120" height="40" as="geometry" />
        </mxCell>
        <mxCell id="YcG1K_yQFC_txdDWkhpD-151" value="&lt;p style=&quot;line-height: 0%;&quot;&gt;&lt;b&gt;DFF&lt;/b&gt;&lt;/p&gt;&lt;p&gt;&lt;/p&gt;" style="rounded=1;whiteSpace=wrap;html=1;" parent="1" vertex="1">
          <mxGeometry x="290" y="640" width="60" height="60" as="geometry" />
        </mxCell>
        <mxCell id="q5pX1_xFONWicA8Pv0eM-7" style="edgeStyle=orthogonalEdgeStyle;rounded=0;orthogonalLoop=1;jettySize=auto;html=1;exitX=1;exitY=0.5;exitDx=0;exitDy=0;endArrow=none;endFill=0;" parent="1" source="YcG1K_yQFC_txdDWkhpD-153" edge="1">
          <mxGeometry relative="1" as="geometry">
            <mxPoint x="250.10101010101016" y="700" as="targetPoint" />
          </mxGeometry>
        </mxCell>
        <mxCell id="YcG1K_yQFC_txdDWkhpD-153" value="" style="shape=trapezoid;perimeter=trapezoidPerimeter;whiteSpace=wrap;html=1;fixedSize=1;rotation=90;" parent="1" vertex="1">
          <mxGeometry x="210" y="630" width="80" height="40" as="geometry" />
        </mxCell>
        <mxCell id="YcG1K_yQFC_txdDWkhpD-154" value="&lt;b&gt;MUX&lt;/b&gt;" style="text;html=1;align=center;verticalAlign=middle;resizable=0;points=[];autosize=1;strokeColor=none;fillColor=none;" parent="1" vertex="1">
          <mxGeometry x="225" y="636" width="50" height="30" as="geometry" />
        </mxCell>
        <mxCell id="YcG1K_yQFC_txdDWkhpD-155" value="" style="endArrow=none;html=1;rounded=0;endFill=0;" parent="1" edge="1">
          <mxGeometry width="50" height="50" relative="1" as="geometry">
            <mxPoint x="270" y="650" as="sourcePoint" />
            <mxPoint x="290" y="650" as="targetPoint" />
          </mxGeometry>
        </mxCell>
        <mxCell id="YcG1K_yQFC_txdDWkhpD-156" value="" style="endArrow=classic;html=1;rounded=0;endFill=1;" parent="1" edge="1">
          <mxGeometry width="50" height="50" relative="1" as="geometry">
            <mxPoint x="350" y="650" as="sourcePoint" />
            <mxPoint x="370" y="650" as="targetPoint" />
          </mxGeometry>
        </mxCell>
        <mxCell id="q5pX1_xFONWicA8Pv0eM-1" value="" style="triangle;whiteSpace=wrap;html=1;rotation=-90;" parent="1" vertex="1">
          <mxGeometry x="316" y="688.5" width="8" height="14.5" as="geometry" />
        </mxCell>
        <mxCell id="q5pX1_xFONWicA8Pv0eM-2" value="" style="endArrow=none;html=1;rounded=0;" parent="1" edge="1">
          <mxGeometry width="50" height="50" relative="1" as="geometry">
            <mxPoint x="210" y="670" as="sourcePoint" />
            <mxPoint x="230" y="670" as="targetPoint" />
          </mxGeometry>
        </mxCell>
        <mxCell id="q5pX1_xFONWicA8Pv0eM-3" value="" style="endArrow=none;html=1;rounded=0;" parent="1" edge="1">
          <mxGeometry width="50" height="50" relative="1" as="geometry">
            <mxPoint x="210" y="630" as="sourcePoint" />
            <mxPoint x="230" y="630" as="targetPoint" />
          </mxGeometry>
        </mxCell>
        <mxCell id="q5pX1_xFONWicA8Pv0eM-4" value="" style="shape=trapezoid;perimeter=trapezoidPerimeter;whiteSpace=wrap;html=1;fixedSize=1;rotation=90;" parent="1" vertex="1">
          <mxGeometry x="150" y="610" width="80" height="40" as="geometry" />
        </mxCell>
        <mxCell id="q5pX1_xFONWicA8Pv0eM-5" value="&lt;b&gt;MUX&lt;/b&gt;" style="text;html=1;align=center;verticalAlign=middle;resizable=0;points=[];autosize=1;strokeColor=none;fillColor=none;" parent="1" vertex="1">
          <mxGeometry x="165" y="615" width="50" height="30" as="geometry" />
        </mxCell>
        <mxCell id="q5pX1_xFONWicA8Pv0eM-6" value="1&#39;b0" style="text;html=1;align=center;verticalAlign=middle;resizable=0;points=[];autosize=1;strokeColor=none;fillColor=none;" parent="1" vertex="1">
          <mxGeometry x="171" y="655" width="50" height="30" as="geometry" />
        </mxCell>
        <mxCell id="q5pX1_xFONWicA8Pv0eM-8" value="rst_n" style="text;html=1;align=center;verticalAlign=middle;resizable=0;points=[];autosize=1;strokeColor=none;fillColor=none;" parent="1" vertex="1">
          <mxGeometry x="225" y="691.5" width="50" height="30" as="geometry" />
        </mxCell>
        <mxCell id="q5pX1_xFONWicA8Pv0eM-9" style="edgeStyle=orthogonalEdgeStyle;rounded=0;orthogonalLoop=1;jettySize=auto;html=1;exitX=1;exitY=0.5;exitDx=0;exitDy=0;endArrow=none;endFill=0;" parent="1" edge="1">
          <mxGeometry relative="1" as="geometry">
            <mxPoint x="320" y="710" as="targetPoint" />
            <mxPoint x="319.9000000000001" y="700" as="sourcePoint" />
          </mxGeometry>
        </mxCell>
        <mxCell id="q5pX1_xFONWicA8Pv0eM-10" value="clk" style="text;html=1;align=center;verticalAlign=middle;resizable=0;points=[];autosize=1;strokeColor=none;fillColor=none;" parent="1" vertex="1">
          <mxGeometry x="299" y="702" width="40" height="30" as="geometry" />
        </mxCell>
        <mxCell id="q5pX1_xFONWicA8Pv0eM-15" value="" style="endArrow=none;html=1;rounded=0;" parent="1" edge="1">
          <mxGeometry width="50" height="50" relative="1" as="geometry">
            <mxPoint x="150" y="650" as="sourcePoint" />
            <mxPoint x="170" y="650" as="targetPoint" />
          </mxGeometry>
        </mxCell>
        <mxCell id="q5pX1_xFONWicA8Pv0eM-16" value="" style="endArrow=none;html=1;rounded=0;" parent="1" edge="1">
          <mxGeometry width="50" height="50" relative="1" as="geometry">
            <mxPoint x="150" y="610" as="sourcePoint" />
            <mxPoint x="170" y="610" as="targetPoint" />
          </mxGeometry>
        </mxCell>
        <mxCell id="q5pX1_xFONWicA8Pv0eM-17" value="scan_in" style="text;html=1;align=center;verticalAlign=middle;resizable=0;points=[];autosize=1;strokeColor=none;fillColor=none;" parent="1" vertex="1">
          <mxGeometry x="95" y="594" width="60" height="30" as="geometry" />
        </mxCell>
        <mxCell id="q5pX1_xFONWicA8Pv0eM-18" value="data" style="text;html=1;align=center;verticalAlign=middle;resizable=0;points=[];autosize=1;strokeColor=none;fillColor=none;" parent="1" vertex="1">
          <mxGeometry x="109" y="633" width="50" height="30" as="geometry" />
        </mxCell>
        <mxCell id="q5pX1_xFONWicA8Pv0eM-19" style="edgeStyle=orthogonalEdgeStyle;rounded=0;orthogonalLoop=1;jettySize=auto;html=1;exitX=1;exitY=0.5;exitDx=0;exitDy=0;endArrow=none;endFill=0;" parent="1" edge="1">
          <mxGeometry relative="1" as="geometry">
            <mxPoint x="190.00101010101025" y="600" as="targetPoint" />
            <mxPoint x="189.9000000000001" y="580" as="sourcePoint" />
          </mxGeometry>
        </mxCell>
        <mxCell id="q5pX1_xFONWicA8Pv0eM-20" value="scan_en" style="text;html=1;align=center;verticalAlign=middle;resizable=0;points=[];autosize=1;strokeColor=none;fillColor=none;" parent="1" vertex="1">
          <mxGeometry x="155" y="557" width="70" height="30" as="geometry" />
        </mxCell>
        <mxCell id="q5pX1_xFONWicA8Pv0eM-21" value="0" style="text;html=1;align=center;verticalAlign=middle;resizable=0;points=[];autosize=1;strokeColor=none;fillColor=none;fontSize=10;fontColor=#999999;" parent="1" vertex="1">
          <mxGeometry x="160" y="635" width="30" height="30" as="geometry" />
        </mxCell>
        <mxCell id="q5pX1_xFONWicA8Pv0eM-22" value="1" style="text;html=1;align=center;verticalAlign=middle;resizable=0;points=[];autosize=1;strokeColor=none;fillColor=none;fontColor=#999999;fontSize=10;" parent="1" vertex="1">
          <mxGeometry x="160" y="594" width="30" height="30" as="geometry" />
        </mxCell>
        <mxCell id="q5pX1_xFONWicA8Pv0eM-24" value="0" style="text;html=1;align=center;verticalAlign=middle;resizable=0;points=[];autosize=1;strokeColor=none;fillColor=none;fontSize=10;fontColor=#999999;" parent="1" vertex="1">
          <mxGeometry x="220" y="654.5" width="30" height="30" as="geometry" />
        </mxCell>
        <mxCell id="q5pX1_xFONWicA8Pv0eM-25" value="1" style="text;html=1;align=center;verticalAlign=middle;resizable=0;points=[];autosize=1;strokeColor=none;fillColor=none;fontColor=#999999;fontSize=10;" parent="1" vertex="1">
          <mxGeometry x="220" y="613.5" width="30" height="30" as="geometry" />
        </mxCell>
        <mxCell id="q5pX1_xFONWicA8Pv0eM-27" value="out" style="text;html=1;align=center;verticalAlign=middle;resizable=0;points=[];autosize=1;strokeColor=none;fillColor=none;" parent="1" vertex="1">
          <mxGeometry x="364" y="635" width="40" height="30" as="geometry" />
        </mxCell>
        <mxCell id="q5pX1_xFONWicA8Pv0eM-29" value="&lt;div style=&quot;color: rgb(248, 248, 242); background-color: rgb(38, 41, 44); font-family: &amp;quot;Fira Code&amp;quot;, Consolas, &amp;quot;Courier New&amp;quot;, monospace, Menlo, Monaco, &amp;quot;Courier New&amp;quot;, monospace; font-size: 16px; line-height: 24px; white-space-collapse: preserve;&quot;&gt;Scan DFF&lt;/div&gt;" style="text;html=1;align=center;verticalAlign=middle;resizable=0;points=[];autosize=1;strokeColor=none;fillColor=none;" parent="1" vertex="1">
          <mxGeometry x="50" y="500" width="100" height="40" as="geometry" />
        </mxCell>
        <mxCell id="g4L5aY2gwNrMAWUN7hUJ-1" value="D" style="text;html=1;align=center;verticalAlign=middle;resizable=0;points=[];autosize=1;strokeColor=none;fillColor=none;fontColor=#999999;" parent="1" vertex="1">
          <mxGeometry x="282" y="635" width="30" height="30" as="geometry" />
        </mxCell>
        <mxCell id="g4L5aY2gwNrMAWUN7hUJ-2" value="Q" style="text;html=1;align=center;verticalAlign=middle;resizable=0;points=[];autosize=1;strokeColor=none;fillColor=none;fontColor=#999999;" parent="1" vertex="1">
          <mxGeometry x="326" y="635" width="30" height="30" as="geometry" />
        </mxCell>
        <mxCell id="BnXZJ7JDA4UKXeQM-Ypl-1" value="&lt;font style=&quot;font-size: 8px;&quot;&gt;data&lt;/font&gt;" style="text;html=1;align=center;verticalAlign=middle;resizable=0;points=[];autosize=1;strokeColor=none;fillColor=none;" vertex="1" parent="1">
          <mxGeometry x="171" y="307" width="40" height="30" as="geometry" />
        </mxCell>
      </root>
    </mxGraphModel>
  </diagram>
</mxfile>
